<svg version="1.2" xmlns="http://www.w3.org/2000/svg" viewBox="0 0 512 512" width="256" height="256">
	<title>error-svg</title>
	<style>
		.s0 { fill: #ffff00 } 
		.s1 { fill: #000000 } 
	</style>
	<g id="Path 0">
		<path id="Path 0" class="s0" d="m257 32.3c10.5 0.3 12 0.5 17.4 3.2 3.2 1.7 7.7 4.8 10 7.1 2.2 2.3 9 12.4 15 22.5 6 10.1 15.4 26.1 20.9 35.4 5.5 9.3 12.8 21.7 16.2 27.5 3.4 5.8 7.2 12.3 8.5 14.5 1.2 2.2 12.9 22.2 26 44.5 13 22.3 29.2 49.9 36 61.5 6.8 11.6 20.5 34.9 30.5 52 10 17.1 28.4 48.6 41 70 12.6 21.4 25.2 43 33 57l0.3 11c0.3 9.2 0 11.9-1.7 16.5-1.3 3.6-4 7.7-7.8 11.7-3.2 3.5-8.6 7.8-18.3 13.3h-456l-4.7-2.4c-2.7-1.3-7.5-4.8-10.8-7.8-3.3-3.1-7.3-8-9-10.9-2.7-5-3-6.3-3.3-17.9-0.4-12.1-0.4-12.7 2.3-18 1.5-3 5.3-10 8.5-15.5 3.1-5.5 11.2-19.4 18-31 6.7-11.6 16.5-28.2 21.8-37 5.2-8.8 12.4-20.9 16-27 3.6-6.1 8-13.5 9.7-16.5 1.7-3 8.6-14.7 15.2-26 6.6-11.3 17.3-29.5 23.8-40.5 6.4-11 14.9-25.4 18.8-32 3.9-6.6 9.8-16.7 13.2-22.5 3.4-5.8 11.5-19.5 18-30.5 6.5-11 13.7-23.2 16-27 2.3-3.8 12.4-21.1 22.6-38.3 10.4-17.8 20.1-33.1 22.4-35.4 2.2-2.2 5.8-5.2 8-6.6 2.2-1.4 5.6-3.1 7.5-3.8 2.4-0.9 7.3-1.3 15-1.1z"/>
		<path id="Path 1" class="s1" d="m256.5 161.3c2.8 0.2 6.8 1.2 8.9 2.3 2.2 1 5.2 3.2 6.9 4.9 1.6 1.6 3.6 4.3 4.5 6 1.5 2.7 1.7 9.1 1.7 65.5 0 55.7-0.2 62.8-1.6 65.5-0.9 1.6-3.8 4.9-6.5 7.3-2.7 2.4-6.5 4.7-8.4 5.2-1.9 0.6-4.6 1-6 1-1.4 0-4.3-0.5-6.5-1.1-2.6-0.8-5.9-3.1-9.6-6.8-5.1-5.1-5.7-6.1-6.3-11.1-0.4-3-0.6-31.8-0.4-64 0.3-52.3 0.5-58.8 2-61.5 0.9-1.7 3.1-4.5 5-6.4 1.8-1.9 5.1-4.2 7.3-5.3 2.7-1.3 5.6-1.8 9-1.5zm2 192.3c4.2 0.3 7.8 1.5 11.9 3.7 3.3 1.8 7.2 4.8 8.8 6.7 1.6 1.9 3.7 5.3 4.8 7.5 1.5 3 2 6.1 2 12.5 0 6.4-0.5 9.5-2 12.5-1.1 2.2-3.2 5.6-4.8 7.5-1.6 1.9-5.8 5.1-9.3 7-5.7 3-7.2 3.4-13.9 3.4-5.7 0-8.6-0.5-12-2.1-2.5-1.2-6.3-3.7-8.5-5.6-2.2-1.8-5.2-5.8-6.8-8.8-2.3-4.6-2.7-6.6-2.7-13.9 0-7.3 0.4-9.3 2.7-13.9 1.6-3 4.6-7 6.8-8.8 2.2-1.9 5.6-4.1 7.5-5 1.9-0.9 4.8-2 6.5-2.4 1.7-0.5 5.7-0.6 9-0.3z"/>
	</g>
</svg>