<svg version="1.2" xmlns="http://www.w3.org/2000/svg" viewBox="0 0 512 512" width="512" height="512">
	<title>triangle-exclamation-solid-svg</title>
	<style>
		.s0 { fill: #f60808 } 
	</style>
	<path id="Path 0" fill-rule="evenodd" class="s0" d="m255.5 32c5.1 0 10 0.6 13.5 1.7 3 1 7.8 3.4 10.5 5.4 2.8 2 6.2 5.2 7.6 7 1.4 1.9 5.5 8.4 9.1 14.4 3.6 6 13.6 23.2 22.3 38 8.7 14.8 21.8 37.1 29 49.5 7.3 12.4 22.6 38.5 34 58 11.5 19.5 27.4 46.8 35.5 60.5 8 13.8 28.1 47.9 44.5 76 16.4 28.1 33.2 56.7 37.4 63.7 4.2 7 8.7 14.9 10.1 17.5 2.2 4.3 2.5 6 2.5 16.3 0 10.7-0.2 11.9-2.9 17.5-1.6 3.3-5.2 8.3-8 11-2.8 2.8-7.8 6.4-17.1 11h-455l-6-3c-3.3-1.6-8.3-5.2-11.1-8-2.8-2.7-6.4-7.7-8-11-2.7-5.6-2.9-6.8-2.9-29l4.5-9c2.5-4.9 17.3-30.6 32.9-57 15.6-26.4 32-54.3 36.6-62 4.5-7.7 13.8-23.4 20.5-35 6.8-11.6 15.1-25.7 18.5-31.5 3.5-5.8 10.8-18.2 16.3-27.5 5.4-9.3 16.1-27.6 23.7-40.5 7.6-12.9 20.4-34.5 28.3-48 8-13.5 19.9-33.7 26.5-45 6.6-11.3 13.3-22.4 14.8-24.8 1.6-2.3 5.5-6.1 8.6-8.5 3.1-2.3 8-5 10.7-5.9 3.1-1.1 8.3-1.8 13.1-1.8zm-10.2 131.2c-1.5 0.9-4.1 2.9-5.7 4.4-1.5 1.6-3.8 4.7-5 6.9-2.1 4-2.1 4.6-2.1 65.5 0 54.7 0.2 61.9 1.6 65 0.9 1.9 3.2 5 5 6.9 1.9 1.8 5.2 4.3 7.4 5.4 2.6 1.4 5.9 2.1 9.5 2.1 3.6 0 6.9-0.7 9.5-2.1 2.2-1.1 5.5-3.6 7.4-5.4 1.8-1.9 4.1-5 5-6.9 1.4-3.1 1.6-10.3 1.6-65 0-60.9 0-61.5-2.1-65.5-1.2-2.2-3.5-5.3-5-6.9-1.6-1.5-4.6-3.7-6.6-4.7-2.1-1-5.7-2.1-8-2.4-2.4-0.2-5.5-0.1-7 0.4-1.5 0.4-4 1.5-5.5 2.3zm-12 199.2c-1.8 2-4.3 5.5-5.5 7.9-1.9 3.5-2.3 5.8-2.3 13.7 0 7.9 0.4 10.2 2.3 13.8 1.2 2.3 3.7 5.8 5.5 7.8 1.7 2 5.9 4.9 9.2 6.5 5 2.5 7.2 2.9 13.5 2.9 6.5 0 8.4-0.4 13.9-3.2 3.9-2 7.8-4.9 9.7-7.3 1.7-2.2 4-5.6 5-7.5 1.5-2.7 1.9-5.6 1.9-13 0-7.4-0.4-10.3-1.9-13-1-1.9-3.3-5.3-5-7.5-1.9-2.4-5.8-5.3-9.7-7.3-5.6-2.8-7.4-3.2-13.9-3.2-6.3 0-8.6 0.5-13.5 2.9-3.3 1.6-7.5 4.5-9.2 6.5z"/>
</svg>